<svg viewBox="0 0 214 40" xmlns="http://www.w3.org/2000/svg" xmlns:xlink="http://www.w3.org/1999/xlink" width="214.000000" height="40.000000" fill="none" customFrame="#000000">
	<defs>
		<clipPath id="clipPath_0">
			<rect width="40.000000" height="40.000000" x="0.000000" y="0.000000" fill="rgb(255,255,255)" />
		</clipPath>
	</defs>
	<rect id="logo" width="214.000000" height="40.000000" x="0.000000" y="0.000000" />
	<g id="Logo/Craftwork" customFrame="url(#clipPath_0)">
		<rect id="Logo/Craftwork" width="40.000000" height="40.000000" x="0.000000" y="0.000000" />
		<circle id="Ellipse 2" cx="20" cy="20" r="20" fill="rgb(133,170,159)" />
		<path id="Union" d="M20.4431 19C26.387 14.517 26.6495 11.8 20.4431 7C14.1184 11.9024 14.9336 14.501 20.4431 19ZM19 20.5569C14.517 14.613 11.8 14.3505 7 20.5569C11.9024 26.8816 14.501 26.0664 19 20.5569ZM34 20.5569C29.517 14.613 26.8 14.3505 22 20.5569C26.9024 26.8816 29.501 26.0664 34 20.5569ZM20.4431 34C26.387 29.517 26.6495 26.8 20.4431 22C14.1184 26.9024 14.9336 29.501 20.4431 34Z" fill="rgb(252,252,252)" fill-rule="evenodd" />
	</g>
	<path id="Text" d="M61.17 27.81L56.176 12.41L59.212 12.41L62.974 24.796L63.172 24.796L66.934 12.41L69.97 12.41L64.954 27.81L61.17 27.81ZM75.9086 28.008C72.3886 28.008 69.8586 25.61 69.8586 22.244L69.8586 21.936C69.8586 18.57 72.3886 16.172 75.9086 16.172L76.0846 16.172C79.6046 16.172 82.1346 18.57 82.1346 21.936L82.1346 22.244C82.1346 25.61 79.6046 28.008 76.0846 28.008L75.9086 28.008ZM75.9306 25.852L76.0626 25.852C77.9326 25.852 79.2966 24.334 79.2966 22.2L79.2966 21.98C79.2966 19.846 77.9546 18.328 76.0626 18.328L75.9306 18.328C74.0606 18.328 72.7186 19.846 72.7186 21.98L72.7186 22.2C72.7186 24.334 74.0606 25.852 75.9306 25.852ZM89.9113 27.986C86.4573 27.986 84.0813 25.61 84.0813 22.244L84.0813 21.892C84.0813 18.57 86.5453 16.194 89.8673 16.194L89.9993 16.194C92.2213 16.194 93.9153 17.206 94.9273 18.812L92.9033 20.154C92.2873 18.988 91.3413 18.372 90.0433 18.372L89.9773 18.372C88.0853 18.372 86.9193 19.714 86.9193 21.98L86.9193 22.2C86.9193 24.378 88.2173 25.764 90.0873 25.764L90.1973 25.764C91.5173 25.764 92.4413 25.06 93.0353 23.982L95.0153 25.456C93.9593 27.018 92.2873 27.986 90.0653 27.986L89.9113 27.986ZM100.479 28.03C98.1027 28.03 96.4747 26.644 96.4747 24.62L96.4747 24.466C96.4747 22.024 98.7847 20.748 103.383 20.748L104.307 20.748L104.307 20.242C104.307 19.12 103.449 18.394 101.931 18.394L101.865 18.394C100.677 18.394 99.2907 18.834 98.1467 19.56L97.0247 17.58C98.4327 16.7 100.193 16.128 102.019 16.128L102.151 16.128C104.879 16.128 106.881 17.558 106.881 20.286L106.881 25.456C106.881 26.248 107.057 27.062 107.277 27.81L104.681 27.81C104.549 27.458 104.439 26.952 104.373 26.446C103.405 27.414 102.041 28.03 100.479 28.03ZM101.029 25.83C102.305 25.83 103.515 25.28 104.307 24.422L104.307 22.508L103.537 22.508C100.523 22.508 99.1147 23.124 99.1147 24.334L99.1147 24.422C99.1147 25.236 99.8847 25.83 101.029 25.83ZM116.713 28.008C115.063 28.008 113.633 27.37 112.665 26.292C112.621 26.798 112.467 27.436 112.335 27.81L110.179 27.81L110.179 11.97L112.907 11.97L112.907 17.668C113.853 16.722 115.173 16.172 116.713 16.172L116.823 16.172C119.991 16.172 122.301 18.548 122.301 21.804L122.301 22.376C122.301 25.632 119.991 28.008 116.823 28.008L116.713 28.008ZM116.097 25.83L116.273 25.83C118.165 25.83 119.463 24.378 119.463 22.332L119.463 21.848C119.463 19.802 118.165 18.35 116.273 18.35L116.097 18.35C114.205 18.35 112.907 19.802 112.907 21.848L112.907 22.332C112.907 24.378 114.205 25.83 116.097 25.83ZM125.116 27.81L125.116 12.41L130.99 12.41C134.026 12.41 136.116 13.972 136.116 16.26L136.116 16.414C136.116 17.734 135.544 18.79 134.268 19.604C135.962 20.308 136.886 21.694 136.886 23.388L136.886 23.52C136.886 26.116 134.818 27.81 131.628 27.81L125.116 27.81ZM127.888 18.878L130.924 18.878C132.398 18.878 133.278 18.086 133.278 16.898L133.278 16.766C133.278 15.622 132.442 14.896 130.968 14.896L127.888 14.896L127.888 18.878ZM127.888 25.324L131.474 25.324C133.036 25.324 134.004 24.532 134.004 23.278L134.004 23.168C134.004 21.87 133.014 21.056 131.43 21.056L127.888 21.056L127.888 25.324ZM143.377 28.03C140.759 28.03 139.329 26.468 139.329 23.696L139.329 16.37L142.057 16.37L142.057 23.124C142.057 24.752 142.761 25.654 144.279 25.654L144.323 25.654C146.127 25.654 147.315 24.444 147.315 22.508L147.315 16.37L150.043 16.37L150.043 27.81L147.887 27.81C147.733 27.37 147.579 26.6 147.557 26.094C146.567 27.282 145.115 28.03 143.421 28.03L143.377 28.03ZM154.683 14.588C153.737 14.588 153.077 13.994 153.077 13.136C153.077 12.278 153.737 11.64 154.683 11.64C155.651 11.64 156.333 12.278 156.333 13.136C156.333 13.994 155.651 14.588 154.683 14.588ZM153.341 27.81L153.341 16.37L156.069 16.37L156.069 27.81L153.341 27.81ZM159.571 27.81L159.571 11.97L162.299 11.97L162.299 27.81L159.571 27.81ZM170.448 28.008C167.258 28.008 164.97 25.632 164.97 22.244L164.97 21.936C164.97 18.548 167.258 16.172 170.448 16.172L170.558 16.172C172.098 16.172 173.418 16.722 174.364 17.69L174.364 11.97L177.092 11.97L177.092 27.81L174.936 27.81C174.804 27.436 174.65 26.754 174.606 26.27C173.616 27.37 172.208 28.008 170.558 28.008L170.448 28.008ZM170.998 25.83L171.174 25.83C173.066 25.83 174.364 24.378 174.364 22.2L174.364 21.98C174.364 19.802 173.066 18.35 171.174 18.35L170.998 18.35C169.106 18.35 167.808 19.802 167.808 21.98L167.808 22.2C167.808 24.378 169.106 25.83 170.998 25.83ZM185.604 28.008C182.128 28.008 179.708 25.676 179.708 22.31L179.708 22.002C179.708 18.636 182.194 16.172 185.56 16.172L185.692 16.172C188.86 16.172 191.148 18.372 191.148 21.452L191.148 22.926L182.414 22.926L182.414 22.948C182.612 24.598 183.932 25.72 185.78 25.72L185.89 25.72C187.298 25.72 188.574 25.082 189.234 24.246L190.752 25.896C189.674 27.194 187.694 28.008 185.802 28.008L185.604 28.008ZM182.48 21.1L188.552 21.1C188.42 19.472 187.254 18.306 185.582 18.306L185.56 18.306C183.976 18.306 182.788 19.406 182.48 21.1ZM193.818 27.81L193.818 16.37L195.974 16.37C196.128 16.81 196.282 17.492 196.304 17.998C197.184 16.986 198.482 16.37 200.066 16.37L200.33 16.37L200.33 19.01C200.11 18.922 199.846 18.878 199.604 18.878C197.624 18.878 196.546 19.978 196.546 21.738L196.546 27.81L193.818 27.81Z" fill="rgb(18,20,23)" fill-rule="nonzero" />
</svg>
